<svg height="512pt" viewBox="0 -75 512 512" width="512pt" xmlns="http://www.w3.org/2000/svg"><path d="m480 0h-362.667969c-17.640625 0-32 14.355469-32 32v234.667969c0 5.886719 4.78125 10.664062 10.667969 10.664062h384c17.644531 0 32-14.355469 32-32v-213.332031c0-17.644531-14.355469-32-32-32zm0 0" fill="#1976d2"/><path d="m191.296875 225.8125-168.535156-131.199219c-4.4375-3.433593-10.792969-2.878906-14.527344 1.34375-5.3125 5.972657-8.234375 13.566407-8.234375 21.375v213.335938c0 7.808593 2.921875 15.402343 8.234375 21.375 2.089844 2.347656 5.011719 3.582031 7.980469 3.582031 2.023437 0 4.050781-.574219 5.84375-1.746094l168.535156-110.507812c3.007812-1.964844 4.820312-5.332032 4.820312-8.917969v-.214844c0-3.285156-1.515624-6.398437-4.117187-8.425781zm0 0" fill="#42a5f5"/><path d="m418.433594 95.957031c-3.734375-4.222656-10.09375-4.777343-14.53125-1.324219l-168.53125 131.203126c-2.601563 2.027343-4.117188 5.332031-4.117188 8.640624 0 3.582032 1.8125 6.953126 4.820313 8.914063l168.535156 110.507813c1.789063 1.171874 3.816406 1.75 5.84375 1.75 2.964844 0 5.886719-1.238282 7.980469-3.585938 5.308594-5.992188 8.234375-13.585938 8.234375-21.394531v-213.335938c0-7.808593-2.925781-15.402343-8.234375-21.375zm0 0" fill="#42a5f5"/><path d="m416.296875 336.042969-166.996094-109.484375c-.789062-.765625-1.707031-1.40625-2.730469-1.898438-3.648437-1.769531-8.019531-1.320312-11.242187 1.195313l-4.265625 3.390625c-10.773438 7.234375-24.707031 7.210937-34.816406.449218l-4.90625-3.839843c-3.222656-2.515625-7.597656-2.878907-11.242188-1.085938-.8125.402344-1.558594.894531-2.21875 1.46875l-167.488281 109.804688c-2.605469 1.707031-4.332031 4.457031-4.738281 7.550781s.578125 6.207031 2.667968 8.511719c5.996094 6.699219 14.65625 10.5625 23.679688 10.5625h362.667969c9.023437 0 17.683593-3.863281 23.722656-10.582031 2.089844-2.304688 3.050781-5.417969 2.664063-8.511719-.425782-3.074219-2.152344-5.824219-4.757813-7.53125zm0 0" fill="#1e88e5"/><path d="m418.390625 95.914062c-6.039063-6.71875-14.699219-10.582031-23.722656-10.582031h-362.667969c-9.023438 0-17.683594 3.863281-23.722656 10.582031-1.984375 2.199219-2.945313 5.121094-2.6875 8.066407.253906 2.941406 1.75 5.652343 4.074218 7.484375l174.058594 135.488281c8.917969 5.996094 19.113282 9.003906 29.417969 9.003906 10.476563 0 21.058594-3.113281 30.464844-9.449219l173.417969-135.019531c2.324218-1.8125 3.820312-4.523437 4.074218-7.488281.257813-2.964844-.722656-5.886719-2.707031-8.085938zm0 0" fill="#2196f3"/><path d="m394.667969 362.667969h-362.667969c-17.644531 0-32-14.359375-32-32v-213.335938c0-17.640625 14.355469-32 32-32h362.667969c17.640625 0 32 14.359375 32 32v213.335938c0 17.640625-14.359375 32-32 32zm-362.667969-256c-5.886719 0-10.667969 4.777343-10.667969 10.664062v213.335938c0 5.886719 4.78125 10.664062 10.667969 10.664062h362.667969c5.886719 0 10.664062-4.777343 10.664062-10.664062v-213.335938c0-5.886719-4.777343-10.664062-10.664062-10.664062zm0 0"/><path d="m480 277.332031h-64c-5.886719 0-10.667969-4.777343-10.667969-10.664062 0-5.890625 4.78125-10.667969 10.667969-10.667969h64c5.886719 0 10.667969-4.777344 10.667969-10.667969v-213.332031c0-5.886719-4.78125-10.667969-10.667969-10.667969h-362.667969c-5.886719 0-10.664062 4.78125-10.664062 10.667969v64c0 5.886719-4.78125 10.667969-10.667969 10.667969s-10.667969-4.78125-10.667969-10.667969v-64c0-17.644531 14.359375-32 32-32h362.667969c17.644531 0 32 14.355469 32 32v213.332031c0 17.644531-14.355469 32-32 32zm0 0"/><path d="m213.121094 256c-10.285156 0-20.480469-3.007812-29.378906-8.9375l-174.078126-135.636719c-4.652343-3.628906-5.484374-10.328125-1.855468-14.976562 3.605468-4.671875 10.304687-5.484375 14.976562-1.855469l173.4375 135.167969c10.15625 6.71875 24.085938 6.71875 34.859375-.449219l172.820313-134.71875c4.652344-3.605469 11.351562-2.816406 14.976562 1.855469 3.605469 4.648437 2.796875 11.347656-1.855468 14.976562l-173.4375 135.167969c-9.410157 6.292969-19.992188 9.40625-30.464844 9.40625zm0 0"/><path d="m16.214844 355.648438c-3.480469 0-6.871094-1.707032-8.917969-4.820313-3.222656-4.929687-1.855469-11.542969 3.070313-14.765625l168.578124-110.632812c4.90625-3.222657 11.539063-1.835938 14.761719 3.070312 3.222657 4.929688 1.855469 11.542969-3.074219 14.765625l-168.574218 110.632813c-1.8125 1.195312-3.839844 1.75-5.84375 1.75zm0 0"/><path d="m410.539062 355.542969c-2.003906 0-4.03125-.554688-5.824218-1.75l-168.660156-110.507813c-4.929688-3.222656-6.292969-9.835937-3.09375-14.761718 3.21875-4.90625 9.832031-6.292969 14.761718-3.09375l168.660156 110.507812c4.929688 3.21875 6.292969 9.832031 3.09375 14.761719-2.046874 3.136719-5.460937 4.84375-8.9375 4.84375zm0 0"/></svg>